<svg id="Layer_1" data-name="Layer 1" xmlns="http://www.w3.org/2000/svg" viewBox="0 0 504.18 487.07"><path d="M382.47,563.92v34.5c0,36.18-29.63,65.61-66.05,65.61H165c-36.42,0-66.05-29.43-66.05-65.61V397.14c-30.2-4.19-53.53-30-53.53-61.15,0-34,27.89-61.74,62.16-61.74S169.74,302,169.74,336c0,31.14-23.33,57-53.53,61.15V598.42A48.67,48.67,0,0,0,165,646.88H316.42a48.68,48.68,0,0,0,48.79-48.46v-34.5c-92.92-4.49-167.12-81-167.12-174.36a28.77,28.77,0,0,1,20.26-27.38V233.07a27.71,27.71,0,0,1,27.77-27.58h12A37.34,37.34,0,0,1,294.45,177c26,0,26,25.05,26,37.09s0,37.1-26,37.1a37.35,37.35,0,0,1-36.32-28.52h-12a10.48,10.48,0,0,0-10.5,10.43V362.18a28.77,28.77,0,0,1,20.25,27.38c0,64.61,52.92,117.18,118,117.18s118-52.57,118-117.18a28.77,28.77,0,0,1,20.26-27.38V233.07a10.48,10.48,0,0,0-10.51-10.43h-12a37.34,37.34,0,0,1-36.32,28.52c-26,0-26-25.06-26-37.1s0-37.09,26-37.09a37.33,37.33,0,0,1,36.32,28.52h12a27.7,27.7,0,0,1,27.77,27.58V362.18a28.76,28.76,0,0,1,20.26,27.38C549.59,482.94,475.39,559.44,382.47,563.92ZM152.47,336a44.9,44.9,0,1,0-44.9,44.61A44.8,44.8,0,0,0,152.47,336Zm142-102c5.25,0,8.71,0,8.71-19.95s-3.46-19.94-8.71-19.94a19.95,19.95,0,1,0,0,39.89Zm158.78-39.89c-5.24,0-8.71,0-8.71,19.94S448,234,453.23,234a19.95,19.95,0,1,0,0-39.89ZM520.7,378a11.59,11.59,0,0,0-11.62,11.54c0,74.07-60.67,134.33-135.23,134.33S238.6,463.63,238.6,389.56a11.62,11.62,0,0,0-23.24,0c0,86.81,71.09,157.43,158.49,157.43s158.48-70.62,158.48-157.43A11.6,11.6,0,0,0,520.7,378ZM78.79,336a28.79,28.79,0,1,1,28.78,28.6A28.71,28.71,0,0,1,78.79,336Zm40.3,0a11.52,11.52,0,1,0-11.52,11.45A11.49,11.49,0,0,0,119.09,336Z" transform="translate(-45.41 -176.97)" style="fill:#fff;fill-rule:evenodd"/></svg>