<svg id="Layer_1" data-name="Layer 1" xmlns="http://www.w3.org/2000/svg" viewBox="0 0 40.27 40.27"><path d="M317.63,430.39v7.91a2.23,2.23,0,0,1-2.08,2.23c-1,.07-1.77.11-2.39.11a35.8,35.8,0,0,1-35.8-35.8c0-.62,0-1.42.11-2.39a2.23,2.23,0,0,1,2.23-2.09h7.91a1.12,1.12,0,0,1,1.11,1c.06.52.1.93.15,1.24a30.87,30.87,0,0,0,2.7,8.95,1,1,0,0,1-.33,1.27l-4.83,3.45a29.26,29.26,0,0,0,15.31,15.31l3.45-4.82a1,1,0,0,1,1.28-.33,31.16,31.16,0,0,0,8.95,2.69q.47.08,1.23.15a1.11,1.11,0,0,1,1,1.11Z" transform="translate(-277.36 -400.36)" style="fill:#fff;fill-rule:evenodd"/></svg>