<svg id="Layer_1" data-name="Layer 1" xmlns="http://www.w3.org/2000/svg" viewBox="0 0 27 27"><path d="M311,427.13v5.31a1.5,1.5,0,0,1-1.39,1.49c-.66.05-1.2.07-1.61.07a24,24,0,0,1-24-24c0-.42,0-.95.07-1.61a1.5,1.5,0,0,1,1.49-1.39h5.31a.76.76,0,0,1,.75.67c0,.35.06.62.09.83a20.92,20.92,0,0,0,1.81,6,.69.69,0,0,1-.22.86l-3.23,2.31a19.58,19.58,0,0,0,10.26,10.27l2.31-3.24a.7.7,0,0,1,.86-.22,21,21,0,0,0,6,1.81l.83.09a.76.76,0,0,1,.67.75Z" transform="translate(-284 -407)" style="fill:#01a780;fill-rule:evenodd"/></svg>